# xmcd CD database file
#
# Track frame offsets:
#	150
#	24355
#	46412
#	72757
#	96755
#	120317
#	146650
#
# Disc length: 2319 seconds
#
# Revision: 0
# Processed by: cddbd v1.5.1PL0 Copyright (c) Steve Scherf et al.
# Submitted via: CDex 1.51
#
DISCID=55090d07
DTITLE=Jackie McLean - Swing Swang Swingin'
DYEAR=1959
DGENRE=Jazz
TTITLE0=What's New
TTITLE1=Let's Face the Music and Dance
TTITLE2=Stable Mates
TTITLE3=I Remember You
TTITLE4=I Love You
TTITLE5=I'll take Romance
TTITLE6=116th and Lenox
EXTD=YEAR: 1959
EXTT0=
EXTT1=
EXTT2=
EXTT3=
EXTT4=
EXTT5=
EXTT6=
PLAYORDER=
